<?xml version="1.0" standalone="no"?>
<!DOCTYPE svg PUBLIC "-//W3C//DTD SVG 20010904//EN"
 "http://www.w3.org/TR/2001/REC-SVG-20010904/DTD/svg10.dtd">
<svg version="1.0" xmlns="http://www.w3.org/2000/svg"
 width="256.000000pt" height="256.000000pt" viewBox="0 0 256.000000 256.000000"
 preserveAspectRatio="xMidYMid meet">

<g transform="translate(0.000000,256.000000) scale(0.100000,-0.100000)"
fill="#000000" stroke="none">
<path d="M1868 2227 c-31 -13 -74 -38 -95 -55 -21 -17 -273 -266 -560 -554
-571 -572 -567 -567 -566 -679 2 -138 109 -248 243 -249 117 0 97 -16 558 443
232 232 422 429 422 438 0 21 -32 49 -55 49 -12 0 -182 -162 -429 -409 -443
-441 -433 -433 -520 -417 -92 17 -146 131 -102 214 22 41 1086 1097 1125 1117
82 41 199 26 273 -35 85 -70 113 -205 63 -306 -19 -37 -180 -204 -687 -711
-757 -756 -711 -718 -873 -718 -77 0 -98 4 -145 26 -82 39 -135 90 -172 167
-30 61 -33 74 -33 162 0 154 -22 127 586 736 476 476 530 534 527 559 -4 34
-27 50 -59 42 -30 -8 -1056 -1035 -1092 -1094 -62 -99 -86 -255 -57 -364 29
-105 117 -223 208 -276 145 -85 342 -83 479 6 27 16 352 335 724 708 648 649
678 681 698 737 29 80 30 182 1 259 -28 75 -104 158 -177 194 -81 39 -204 44
-285 10z"/>
</g>
</svg>
